<?xml version="1.0" encoding="iso-8859-1"?>
<!DOCTYPE svg PUBLIC "-//W3C//DTD SVG 1.1//EN" "http://www.w3.org/Graphics/SVG/1.1/DTD/svg11.dtd">
<svg 
 version="1.1" xmlns="http://www.w3.org/2000/svg" xmlns:xlink="http://www.w3.org/1999/xlink" x="0px" y="0px" width="512px"
	 height="512px" viewBox="0 0 512 512" enable-background="new 0 0 512 512" xml:space="preserve"
><g id="2069a460dcf28295e231f3111e052b55"><g></g><path display="inline" d="M256,0.501C114.893,0.501,0.5,114.894,0.5,255.999c0,141.107,114.393,255.5,255.5,255.5
		c141.107,0,255.5-114.393,255.5-255.5C511.5,114.894,397.107,0.501,256,0.501z M108.451,303.918
		c-20.189,0-36.553,16.363-36.553,36.554c0,17.383,12.143,31.899,28.403,35.605c-9.249-0.69-17.487-2.982-24.303-6.571
		c-7.822-12.351-14.43-25.537-19.599-39.431c4.708-24.402,30.915-48.613,63.563-56.436c7.14-1.709,14.256-2.578,21.146-2.578
		c27.825,0,48.118,13.772,50.493,34.274c3.248,27.979-26.12,59.301-64.137,68.403c-2.586,0.62-5.161,1.09-7.73,1.489
		c14.663-4.758,25.271-18.51,25.271-34.757C145.005,320.281,128.641,303.918,108.451,303.918z M48.626,304.089
		c-1.426-6.151-2.59-12.393-3.472-18.73c6.87,0.133,13.278-0.112,19.262-0.687C58.112,290.623,52.785,297.173,48.626,304.089z
		 M256,468.916c-65.572,0-124.294-29.813-163.38-76.571c4.412,0.653,8.982,1.011,13.698,1.011c8.055,0,16.497-0.985,25.118-3.053
		c46.842-11.215,81.357-50.135,77.087-86.93c-3.477-30.021-31.705-49.35-67.418-49.345c-2.503,0-5.053,0.129-7.623,0.324
		c12.525-11.074,22.498-22.881,33.846-31.331c8.226-6.129,1.052-23.94-11.989-16.783c-30.341,16.646-30.64,58.644-111.715,64.162
		c-0.32-4.766-0.541-9.557-0.541-14.401c0-117.401,95.513-212.915,212.917-212.915s212.917,95.514,212.917,212.915
		C468.917,373.402,373.403,468.916,256,468.916z M379.616,285.067c4.546,0.278,9.303,0.395,14.326,0.291
		c11.1,1.539,15-14.105,3.235-14.809c-83.112-4.944-83.112-47.528-113.706-64.312c-13.042-7.157-20.215,10.654-11.989,16.783
		c11.266,8.393,21.175,20.086,33.571,31.086c-0.853-0.021-1.722-0.079-2.565-0.079c-35.722,0-63.941,19.324-67.422,49.345
		c-4.267,36.795,30.249,75.715,77.082,86.93c8.625,2.067,17.063,3.053,25.122,3.053c35.713,0,63.933-19.329,67.413-49.345
		C407.092,323.251,397.148,301.822,379.616,285.067z M387.763,342.048c-2.374,20.501-22.668,34.274-50.492,34.274
		c-6.101,0-12.389-0.724-18.714-2.071c13.266-5.48,22.61-18.53,22.61-33.779c0-20.19-16.368-36.554-36.554-36.554
		s-36.554,16.363-36.554,36.554c0,2.112,0.217,4.167,0.562,6.18c-11.71-12.472-18.256-27.313-16.634-41.315
		c2.374-20.502,22.672-34.274,50.497-34.274c6.886,0,14.002,0.869,21.146,2.578C361.644,282.751,391.011,314.077,387.763,342.048z"></path></g></svg>