<?xml version="1.0" encoding="iso-8859-1"?>
<!DOCTYPE svg PUBLIC "-//W3C//DTD SVG 1.1//EN" "http://www.w3.org/Graphics/SVG/1.1/DTD/svg11.dtd">
<svg 
 version="1.1" xmlns="http://www.w3.org/2000/svg" xmlns:xlink="http://www.w3.org/1999/xlink" x="0px" y="0px" width="512px"
	 height="512px" viewBox="0 0 512 512" enable-background="new 0 0 512 512" xml:space="preserve"
><g id="5151e0c8492e5103c096af88a5235833"><g></g><path display="inline" d="M178.96,99.547c-9.089-20.643,3.114-23.933,5.623-1.526c15.46-48.053,40.603-33.577,6.802,3.919
		c20.638-9.083,23.925,3.125,1.513,5.629c48.061,15.457,33.584,40.601-3.91,6.799c9.079,20.637-3.122,23.926-5.631,1.52
		c-15.455,48.055-40.604,33.575-6.798-3.921c-20.639,9.084-23.93-3.117-1.521-5.626C126.979,90.88,141.461,65.734,178.96,99.547z
		 M439.116,402.465c16.824,32.448,10.066,63.948-18.986,85.662c-12.874,9.619-26.146,14.498-39.452,14.498
		c-16.509,0-32.214-7.592-45.895-22.08c-13.691,14.491-29.396,22.084-45.901,22.084c-13.304,0-26.579-4.876-39.449-14.492
		c-18.171-13.587-27.634-30.38-28.128-49.91c-0.289-11.228,2.59-22.802,8.511-34.528c-47.271,23.713-86.591,45.665-116.812,90.06
		L77.887,511.5l-18.11-35.484C15.092,367.215,33.676,274.317,98.775,173.801c-6.505-9.462-9.522-18.336-9.308-27.156
		c0.063-2.698,0.435-5.328,1.104-7.882c-8.679-9.445-13.054-24.713-13.054-45.692c0-18.99,3.206-32.291,10.088-41.86
		c4.995-6.945,14.517-15.223,31.508-15.223c2.423,0,4.838,0.166,7.172,0.43c0.702-6.345,2.819-12.957,7.575-18.917
		C146.024,2.262,168.332,0.5,184.056,0.5c15.721,0,38.027,1.762,50.188,17.001c4.751,5.953,6.87,12.556,7.573,18.898
		c2.284-0.253,4.646-0.411,7.011-0.411c18.978,0,41.599,9.902,41.599,57.08c0,20.868-4.335,36.089-12.932,45.546
		c0.692,2.594,1.077,5.267,1.146,8.01c0.343,13.792-7.177,27.717-23.668,43.822c-16.041,15.665-29.828,22.961-43.389,22.961
		c-12.143,0-21.08-5.787-27.529-12.309c-6.448,6.522-15.387,12.309-27.528,12.309c-11.962,0-24.104-5.697-37.81-17.788
		C65.047,283.455,59.66,362.669,95.262,458.273c30.212-42.721,66.381-50.829,111.402-74.064
		c-13.799-16.388-17.549-38.083-9.846-62.465c9.352-29.622,30.829-46.608,58.928-46.608c4.62,0,9.447,0.457,14.437,1.358
		c5.011-36.379,28.571-57.743,64.601-57.743c36.021,0,59.575,21.365,64.586,57.746c4.994-0.904,9.824-1.361,14.443-1.361
		c28.097,0,49.575,16.986,58.928,46.601C483.815,356.795,471.271,386.333,439.116,402.465z M115.305,132.181
		c-10.957,9.707-13.653,22.251,10.229,45.572c13.275,12.964,23.142,17.912,30.993,17.912c10.059,0,16.811-8.117,23.19-17.909
		c1.719-2.647,3.146-5.489,4.338-8.424c1.186,2.935,2.613,5.776,4.339,8.424c6.378,9.79,13.134,17.909,23.19,17.909
		c7.852,0,17.716-4.947,30.993-17.912c23.896-23.339,21.18-35.887,10.195-45.593c11.733-1.518,19.911-10.642,19.911-39.092
		c0-31.542-10.053-39.338-23.856-39.338c-4.493,0-9.383,0.825-14.456,1.927c-4.664,1.008-9.196,2.724-13.432,4.941
		c0.568-1.625,1.047-3.274,1.428-4.941c4.589-20.171,4.505-37.415-38.313-37.415c-42.823,0-42.907,17.244-38.318,37.415
		c0.395,1.701,0.887,3.389,1.462,5.052c-4.283-2.273-8.892-4.026-13.626-5.052c-5.073-1.1-9.966-1.927-14.459-1.927
		c-13.806,0-23.853,7.793-23.853,39.341C95.262,121.637,103.502,130.719,115.305,132.181z M455.822,327.08
		c-4.928-15.601-16.214-34.202-42.01-34.202c-6.085,0-12.787,1.054-19.911,3.129l-10.92,3.182l-0.426-11.366
		c-0.877-23.415-9.876-51.329-47.772-51.329c-37.907,0-46.91,27.914-47.787,51.329l-0.426,11.369l-10.923-3.188
		c-7.117-2.072-13.813-3.126-19.901-3.126c-25.796,0-37.082,18.602-42.01,34.209c-9.348,29.591,1.9,51.359,32.53,62.954
		l10.315,3.905l-6.026,9.239c-7.919,12.139-11.793,23.775-11.516,34.587c0.355,14.023,7.229,25.848,21.014,36.153
		c9.734,7.271,19.434,10.961,28.828,10.961c17.288,0,30.671-12.742,38.859-23.429l7.045-9.204l7.042,9.204
		c8.178,10.687,21.558,23.425,38.85,23.425c9.395,0,19.094-3.687,28.827-10.964c30.873-23.072,22.206-51.207,9.499-70.744
		l-6.006-9.235l10.299-3.898C453.92,378.443,465.168,356.67,455.822,327.08z M359.006,356.524
		c12.51-16.252,2.058-26.696-14.194-14.19c-2.647-20.337-17.424-20.337-20.071,0c-16.252-12.506-26.696-2.062-14.193,14.19
		c-20.335,2.651-20.335,17.424,0,20.075c-12.503,16.252-2.059,26.7,14.193,14.193c2.654,20.338,17.424,20.335,20.071,0
		c16.252,12.507,26.704,2.059,14.194-14.193C379.347,373.952,379.347,359.176,359.006,356.524z"></path></g></svg>