<?xml version="1.0" encoding="iso-8859-1"?>
<!DOCTYPE svg PUBLIC "-//W3C//DTD SVG 1.1//EN" "http://www.w3.org/Graphics/SVG/1.1/DTD/svg11.dtd">
<svg 
 version="1.1" xmlns="http://www.w3.org/2000/svg" xmlns:xlink="http://www.w3.org/1999/xlink" x="0px" y="0px" width="512px"
	 height="512px" viewBox="0 0 512 512" enable-background="new 0 0 512 512" xml:space="preserve"
><g id="e6c6b53d3c8160b22dad35a0f70b2c3f"><g></g><path display="inline" d="M125.969,130.531C125.969,58.832,184.301,0.5,256,0.5s130.031,58.332,130.031,130.031
		c0,8.82-7.151,15.969-15.969,15.969s-15.969-7.149-15.969-15.969c0-2.294-0.188-4.542-0.343-6.799
		c-0.005-0.013-0.005-0.029-0.005-0.044l0,0c-3.537-50.894-45.964-91.25-97.746-91.25c-51.78,0-94.208,40.356-97.746,91.25l0,0
		c0,0.016-0.002,0.031-0.002,0.047c-0.156,2.254-0.345,4.502-0.345,6.797c0,8.82-7.151,15.969-15.969,15.969
		S125.969,139.351,125.969,130.531z M501.608,466.187L466.642,169c-2.932-24.922-25.86-45.313-50.954-45.313h-7.018
		c0.103,2.27,0.174,4.549,0.174,6.844c0,21.384-17.399,38.781-38.781,38.781s-38.781-17.397-38.781-38.781
		c0-2.31-0.143-4.587-0.348-6.844H181.066c-0.205,2.257-0.348,4.534-0.348,6.844c0,21.384-17.397,38.781-38.781,38.781
		s-38.781-17.397-38.781-38.781c0-2.294,0.074-4.574,0.174-6.844h-7.018c-25.094,0-48.022,20.391-50.954,45.313L10.392,466.187
		C7.459,491.111,25.594,511.5,50.688,511.5h410.625C486.406,511.5,504.54,491.111,501.608,466.187z"></path></g></svg>