<?xml version="1.0" encoding="iso-8859-1"?>
<!DOCTYPE svg PUBLIC "-//W3C//DTD SVG 1.1//EN" "http://www.w3.org/Graphics/SVG/1.1/DTD/svg11.dtd">
<svg 
 version="1.1" xmlns="http://www.w3.org/2000/svg" xmlns:xlink="http://www.w3.org/1999/xlink" x="0px" y="0px" width="512px"
	 height="512px" viewBox="0 0 512 512" enable-background="new 0 0 512 512" xml:space="preserve"
><g id="e6c6b53d3c8160b22dad35a0f70b5fdf"><g></g><g fill="#f28500"><path display="inline" d="M170.833,373.104c0,23.521-19.063,42.583-42.583,42.583s-42.583-19.063-42.583-42.583
		c0-23.521,19.063-42.584,42.583-42.584S170.833,349.583,170.833,373.104z M383.75,330.521c-23.521,0-42.583,19.063-42.583,42.584
		c0,0.037,0.004,0.07,0.004,0.107l0,0c0.063,23.471,19.096,42.476,42.579,42.476c23.463,0,42.483-18.972,42.575-42.413l0,0
		c0-0.058,0.008-0.112,0.008-0.17C426.333,349.583,407.271,330.521,383.75,330.521z M511.5,287.938
		c0,42.583-21.292,84.635-63.875,85.167c-2.683,0.033-5.535,0.062-8.521,0.087c0-0.029,0.004-0.059,0.004-0.087
		c0-30.524-24.835-55.358-55.358-55.358s-55.358,24.834-55.358,55.358c0,0.017,0.004,0.033,0.004,0.045
		c-5.368-0.024-8.521-0.045-8.521-0.045h-42.583h-85.167h-8.517c0-30.524-24.835-55.358-55.358-55.358s-55.358,24.834-55.358,55.358
		H43.083c-23.421,0-42.583-19.163-42.583-42.584V160.188c0-23.421,10.933-63.875,42.583-63.875c42.583,0,149.042,0,149.042,0h85.167
		l42.583,21.292c0,0,42.583,0,63.875,0C431.361,117.604,511.5,240.329,511.5,287.938z M456.142,228.321
		c-4.005-6.66-8.475-13.582-13.461-20.676c-28.798-40.978-52.127-55.597-58.282-55.974H329.04v76.65H456.142z"></path></g></g></svg>